<svg xmlns="http://www.w3.org/2000/svg" xmlns:xlink="http://www.w3.org/1999/xlink" width="500" zoomAndPan="magnify" viewBox="0 0 375 374.999991" height="500" preserveAspectRatio="xMidYMid meet" version="1.0"><defs><clipPath id="fb321701c1"><path d="M 0.777344 18.75 L 374.21875 18.75 L 374.21875 356.25 L 0.777344 356.25 Z M 0.777344 18.75 " clip-rule="nonzero"/></clipPath></defs><g clip-path="url(#fb321701c1)"><path fill="#ff3131" d="M 103.882812 294.355469 L 105.710938 301.273438 C 108.894531 312.101562 112.515625 322.183594 116.523438 331.390625 L 122.359375 343.582031 L 122.054688 343.472656 C 101.804688 334.90625 83.570312 322.511719 68.253906 307.195312 L 63.476562 301.9375 L 63.628906 301.898438 C 72.519531 299.773438 81.886719 297.878906 91.644531 296.230469 Z M 271.992188 294.355469 L 284.230469 296.230469 C 293.988281 297.878906 303.355469 299.773438 312.25 301.898438 L 312.402344 301.9375 L 307.621094 307.195312 C 292.308594 322.511719 274.070312 334.90625 253.820312 343.472656 L 253.519531 343.582031 L 259.355469 331.390625 C 263.359375 322.183594 266.984375 312.101562 270.164062 301.273438 Z M 198.332031 288.828125 L 221.597656 289.445312 C 227.105469 289.738281 232.550781 290.105469 237.929688 290.539062 L 251.375 291.808594 L 249.039062 301.035156 C 243.808594 319.964844 237.285156 336.9375 229.699219 351.242188 L 229.613281 351.390625 L 222.046875 353.335938 C 216.539062 354.464844 210.933594 355.324219 205.242188 355.902344 L 198.332031 356.25 Z M 177.546875 288.828125 L 177.546875 356.25 L 170.632812 355.902344 C 164.941406 355.324219 159.335938 354.464844 153.824219 353.335938 L 146.261719 351.390625 L 146.175781 351.242188 C 138.59375 336.9375 132.066406 319.964844 126.835938 301.035156 L 124.503906 291.808594 L 137.945312 290.539062 C 143.324219 290.105469 148.773438 289.738281 154.277344 289.445312 Z M 280.636719 252.714844 L 344.109375 252.714844 L 343.082031 255.28125 C 338.957031 264.714844 333.992188 273.699219 328.289062 282.144531 L 325.109375 286.394531 L 317.199219 283.960938 C 308.417969 281.507812 299.015625 279.296875 289.085938 277.363281 L 276.554688 275.160156 L 278.328125 266.707031 C 279.167969 262.144531 279.933594 257.492188 280.632812 252.765625 Z M 198.332031 252.714844 L 258.886719 252.714844 L 258.535156 255.445312 C 257.746094 260.8125 256.863281 266.089844 255.890625 271.265625 L 255.695312 272.199219 L 241.152344 270.632812 C 229.84375 269.597656 218.148438 268.882812 206.148438 268.523438 L 198.332031 268.40625 Z M 116.988281 252.714844 L 177.546875 252.714844 L 177.546875 268.40625 L 169.726562 268.523438 C 157.730469 268.882812 146.03125 269.597656 134.722656 270.632812 L 120.179688 272.199219 L 119.984375 271.265625 C 119.011719 266.089844 118.128906 260.8125 117.339844 255.445312 Z M 31.765625 252.714844 L 95.238281 252.714844 L 95.246094 252.765625 C 95.941406 257.492188 96.710938 262.144531 97.550781 266.707031 L 99.320312 275.160156 L 86.789062 277.363281 C 76.859375 279.296875 67.457031 281.507812 58.675781 283.960938 L 50.765625 286.394531 L 47.585938 282.144531 C 41.882812 273.699219 36.921875 264.714844 32.796875 255.28125 Z M 167.105469 157.808594 L 188.269531 217.191406 L 208.035156 217.191406 L 221.085938 181.050781 L 233.578125 217.191406 L 253.34375 217.191406 L 274.507812 157.808594 L 256.886719 157.808594 L 243.183594 196.066406 L 230.035156 157.808594 L 213.070312 157.808594 L 199.273438 195.730469 L 186.125 157.808594 Z M 109.539062 157.808594 L 109.539062 217.191406 L 161.933594 217.191406 L 161.933594 204.210938 L 127.8125 204.210938 L 127.8125 193.351562 L 156.808594 193.351562 L 156.808594 180.796875 L 127.8125 180.796875 L 127.8125 170.789062 L 160.722656 170.789062 L 160.722656 157.808594 Z M 34.484375 157.808594 L 34.484375 217.191406 L 52.570312 217.191406 L 52.570312 185.546875 L 81.378906 217.191406 L 96.574219 217.191406 L 96.574219 157.808594 L 78.488281 157.808594 L 78.488281 189.449219 L 49.679688 157.808594 Z M 307.988281 156.621094 C 301.710938 156.621094 296.410156 157.46875 292.09375 159.164062 C 287.773438 160.863281 284.527344 163.167969 282.351562 166.078125 C 280.175781 168.992188 279.085938 172.257812 279.085938 175.878906 C 279.085938 180.007812 280.269531 183.285156 282.628906 185.71875 C 284.992188 188.148438 287.820312 189.917969 291.113281 191.019531 C 294.40625 192.125 298.511719 193.15625 303.417969 194.117188 C 307.894531 195.023438 311.144531 195.882812 313.164062 196.703125 C 315.179688 197.523438 316.191406 198.78125 316.191406 200.480469 C 316.191406 203.703125 312.648438 205.316406 305.566406 205.316406 C 301.835938 205.316406 298.042969 204.777344 294.1875 203.703125 C 290.335938 202.628906 286.949219 201.214844 284.027344 199.460938 L 277.96875 211.847656 C 281.074219 213.828125 285.117188 215.410156 290.085938 216.597656 C 295.058594 217.785156 300.1875 218.378906 305.472656 218.378906 C 311.6875 218.378906 316.96875 217.515625 321.320312 215.792969 C 325.667969 214.066406 328.933594 211.761719 331.109375 208.878906 C 333.285156 205.992188 334.371094 202.769531 334.371094 199.207031 C 334.371094 195.078125 333.175781 191.8125 330.78125 189.410156 C 328.390625 187.003906 325.5625 185.25 322.300781 184.148438 C 319.035156 183.046875 314.917969 182.015625 309.945312 181.050781 C 305.53125 180.203125 302.332031 179.382812 300.34375 178.59375 C 298.355469 177.800781 297.359375 176.613281 297.359375 175.03125 C 297.359375 173.445312 298.199219 172.160156 299.878906 171.167969 C 301.554688 170.179688 304.226562 169.683594 307.894531 169.683594 C 313.738281 169.683594 319.765625 171.210938 325.980469 174.265625 L 331.667969 161.796875 C 328.5 160.097656 324.832031 158.8125 320.667969 157.9375 C 316.503906 157.058594 312.277344 156.621094 307.988281 156.621094 Z M 10.492188 139.1875 L 364.503906 139.1875 C 369.867188 139.1875 374.21875 143.535156 374.21875 148.902344 L 374.21875 226.097656 C 374.21875 231.464844 369.867188 235.816406 364.503906 235.816406 L 10.492188 235.816406 C 5.128906 235.816406 0.777344 231.464844 0.777344 226.097656 L 0.777344 148.902344 C 0.777344 143.535156 5.128906 139.1875 10.492188 139.1875 Z M 255.695312 102.804688 L 255.890625 103.734375 C 256.863281 108.910156 257.746094 114.1875 258.535156 119.554688 L 258.886719 122.28125 L 198.332031 122.28125 L 198.332031 106.59375 L 206.148438 106.476562 C 218.144531 106.117188 229.84375 105.402344 241.152344 104.367188 Z M 120.179688 102.804688 L 134.722656 104.367188 C 146.03125 105.402344 157.730469 106.117188 169.726562 106.476562 L 177.546875 106.59375 L 177.546875 122.28125 L 116.988281 122.28125 L 117.339844 119.554688 C 118.128906 114.1875 119.011719 108.910156 119.984375 103.734375 Z M 325.109375 88.605469 L 328.289062 92.855469 C 333.992188 101.300781 338.957031 110.285156 343.082031 119.71875 L 344.109375 122.28125 L 280.636719 122.28125 L 280.632812 122.234375 C 279.933594 117.507812 279.167969 112.855469 278.328125 108.292969 L 276.554688 99.839844 L 289.085938 97.636719 C 299.015625 95.703125 308.417969 93.492188 317.199219 91.039062 Z M 50.765625 88.605469 L 58.675781 91.039062 C 67.457031 93.492188 76.859375 95.703125 86.789062 97.636719 L 99.320312 99.839844 L 97.550781 108.292969 C 96.710938 112.855469 95.941406 117.507812 95.246094 122.234375 L 95.238281 122.28125 L 31.765625 122.28125 L 32.796875 119.71875 C 36.921875 110.285156 41.882812 101.300781 47.585938 92.855469 Z M 253.519531 31.417969 L 253.820312 31.527344 C 274.070312 40.09375 292.308594 52.488281 307.621094 67.804688 L 312.402344 73.0625 L 312.25 73.105469 C 303.355469 75.226562 293.988281 77.121094 284.230469 78.769531 L 271.992188 80.644531 L 270.164062 73.726562 C 266.984375 62.902344 263.359375 52.816406 259.355469 43.609375 Z M 122.359375 31.417969 L 116.523438 43.609375 C 112.515625 52.816406 108.894531 62.902344 105.710938 73.726562 L 103.882812 80.644531 L 91.644531 78.769531 C 81.886719 77.121094 72.519531 75.226562 63.628906 73.105469 L 63.476562 73.0625 L 68.253906 67.804688 C 83.570312 52.488281 101.804688 40.09375 122.054688 31.527344 Z M 198.332031 18.75 L 205.242188 19.101562 C 210.933594 19.675781 216.539062 20.539062 222.046875 21.664062 L 229.613281 23.609375 L 229.699219 23.757812 C 237.285156 38.0625 243.808594 55.035156 249.039062 73.964844 L 251.375 83.191406 L 237.929688 84.460938 C 232.550781 84.894531 227.105469 85.261719 221.597656 85.554688 L 198.332031 86.171875 Z M 177.546875 18.75 L 177.546875 86.171875 L 154.277344 85.554688 C 148.773438 85.261719 143.324219 84.894531 137.945312 84.460938 L 124.503906 83.191406 L 126.835938 73.964844 C 132.066406 55.035156 138.59375 38.0625 146.175781 23.757812 L 146.261719 23.609375 L 153.824219 21.664062 C 159.335938 20.539062 164.941406 19.675781 170.632812 19.101562 Z M 177.546875 18.75 " fill-opacity="1" fill-rule="evenodd"/></g></svg>